<svg xmlns="http://www.w3.org/2000/svg" viewBox="0 0 400 120" width="400" height="120">
  <!-- Background -->
  <defs>
    <linearGradient id="bgGradient" x1="0%" y1="0%" x2="100%" y2="100%">
      <stop offset="0%" style="stop-color:#1a1a2e;stop-opacity:1" />
      <stop offset="50%" style="stop-color:#16213e;stop-opacity:1" />
      <stop offset="100%" style="stop-color:#0f172a;stop-opacity:1" />
    </linearGradient>
    <linearGradient id="terminalGradient" x1="0%" y1="0%" x2="100%" y2="100%">
      <stop offset="0%" style="stop-color:#00ff88;stop-opacity:1" />
      <stop offset="100%" style="stop-color:#00cc6a;stop-opacity:1" />
    </linearGradient>
  </defs>
  
  <!-- Main background -->
  <rect width="400" height="120" rx="12" ry="12" fill="url(#bgGradient)" stroke="#00ff88" stroke-width="2"/>
  
  <!-- Terminal window -->
  <rect x="20" y="20" width="80" height="50" rx="4" ry="4" fill="#0d1117" stroke="#00ff88" stroke-width="1"/>
  
  <!-- Terminal header -->
  <rect x="20" y="20" width="80" height="12" rx="4" ry="4" fill="#21262d"/>
  <circle cx="28" cy="26" r="2" fill="#ff5f57"/>
  <circle cx="36" cy="26" r="2" fill="#ffbd2e"/>
  <circle cx="44" cy="26" r="2" fill="#28ca42"/>
  
  <!-- Terminal prompt -->
  <text x="25" y="45" font-family="Monaco, 'Courier New', monospace" font-size="8" fill="#00ff88">$</text>
  <text x="32" y="45" font-family="Monaco, 'Courier New', monospace" font-size="8" fill="#ffffff">bash</text>
  
  <!-- Terminal cursor -->
  <rect x="55" y="40" width="6" height="8" fill="#00ff88" opacity="0.8">
    <animate attributeName="opacity" values="0.8;0.2;0.8" dur="1s" repeatCount="indefinite"/>
  </rect>
  
  <!-- Bash symbol -->
  <text x="25" y="65" font-family="Monaco, 'Courier New', monospace" font-size="12" fill="#00ff88" font-weight="bold">#!/bin/bash</text>
  
  <!-- Main title -->
  <text x="120" y="40" font-family="Arial, sans-serif" font-size="24" font-weight="bold" fill="#ffffff">Bootcamp</text>
  <text x="120" y="65" font-family="Arial, sans-serif" font-size="24" font-weight="bold" fill="url(#terminalGradient)">Bash</text>
  
  <!-- Subtitle -->
  <text x="120" y="85" font-family="Arial, sans-serif" font-size="14" fill="#8b949e">8 Módulos • Shell Scripting</text>
  
  <!-- Code brackets decoration -->
  <text x="320" y="30" font-family="Monaco, 'Courier New', monospace" font-size="20" fill="#00ff88" opacity="0.6">{</text>
  <text x="340" y="50" font-family="Monaco, 'Courier New', monospace" font-size="16" fill="#00ff88" opacity="0.4">for</text>
  <text x="365" y="70" font-family="Monaco, 'Courier New', monospace" font-size="20" fill="#00ff88" opacity="0.6">}</text>
  
  <!-- Progress dots -->
  <circle cx="320" cy="90" r="3" fill="#00ff88"/>
  <circle cx="330" cy="90" r="3" fill="#00ff88" opacity="0.7"/>
  <circle cx="340" cy="90" r="3" fill="#00ff88" opacity="0.5"/>
  <circle cx="350" cy="90" r="3" fill="#00ff88" opacity="0.3"/>
  <circle cx="360" cy="90" r="3" fill="#00ff88" opacity="0.3"/>
  <circle cx="370" cy="90" r="3" fill="#00ff88" opacity="0.3"/>
  <circle cx="380" cy="90" r="3" fill="#00ff88" opacity="0.3"/>
  <circle cx="390" cy="90" r="3" fill="#00ff88" opacity="0.3"/>
</svg>
