<svg xmlns="http://www.w3.org/2000/svg" viewBox="0 0 300 80" width="300" height="80">
  <defs>
    <linearGradient id="module8Bg" x1="0%" y1="0%" x2="100%" y2="100%">
      <stop offset="0%" style="stop-color:#1f2937;stop-opacity:1" />
      <stop offset="100%" style="stop-color:#111827;stop-opacity:1" />
    </linearGradient>
  </defs>
  
  <!-- Background -->
  <rect width="300" height="80" rx="10" ry="10" fill="url(#module8Bg)" stroke="#fbbf24" stroke-width="2"/>
  
  <!-- Module number -->
  <circle cx="40" cy="40" r="20" fill="#fbbf24" stroke="#1f2937" stroke-width="2"/>
  <text x="40" y="48" font-family="Arial, sans-serif" font-size="18" font-weight="bold" fill="#1f2937" text-anchor="middle">8</text>
  
  <!-- Automation symbols -->
  <text x="80" y="25" font-family="Monaco, monospace" font-size="8" fill="#ffffff">#!/bin/bash</text>
  <text x="80" y="35" font-family="Monaco, monospace" font-size="8" fill="#fef3c7">curl -X POST api/</text>
  <text x="80" y="45" font-family="Monaco, monospace" font-size="8" fill="#fef3c7">docker run app</text>
  <text x="80" y="55" font-family="Monaco, monospace" font-size="8" fill="#fef3c7">git push origin</text>
  
  <!-- Gear icon for automation -->
  <circle cx="125" cy="35" r="8" fill="#fbbf24" opacity="0.3"/>
  <path d="M125,30 L127,32 L125,34 L123,32 Z M125,36 L127,38 L125,40 L123,38 Z M120,35 L122,33 L124,35 L122,37 Z M126,35 L128,33 L130,35 L128,37 Z" fill="#fbbf24"/>
  
  <text x="80" y="67" font-family="Monaco, monospace" font-size="6" fill="#fed7aa">Automatización Total</text>
  
  <!-- Title -->
  <text x="150" y="30" font-family="Arial, sans-serif" font-size="18" font-weight="bold" fill="#ffffff">Módulo 8</text>
  <text x="150" y="50" font-family="Arial, sans-serif" font-size="14" fill="#fef3c7">Proyectos y Automatización</text>
  <text x="150" y="65" font-family="Arial, sans-serif" font-size="10" fill="#fed7aa">APIs • Docker • CI/CD • Deploy</text>
</svg>
